Coordinates
version=1
nRows=10
nColumns=40
inDegrees=yes

Units are S.I. units (second, meters, Newtons, ...)
Angles are in degrees.

endheader
time	pelvis_tilt	pelvis_list	pelvis_rotation	pelvis_tx	pelvis_ty	pelvis_tz	hip_flexion_r	hip_adduction_r	hip_rotation_r	knee_angle_r	knee_angle_r_beta	ankle_angle_r	subtalar_angle_r	mtp_angle_r	hip_flexion_l	hip_adduction_l	hip_rotation_l	knee_angle_l	knee_angle_l_beta	ankle_angle_l	subtalar_angle_l	mtp_angle_l	lumbar_extension	lumbar_bending	lumbar_rotation	arm_flex_r	arm_add_r	arm_rot_r	elbow_flex_r	pro_sup_r	wrist_flex_r	wrist_dev_r	arm_flex_l	arm_add_l	arm_rot_l	elbow_flex_l	pro_sup_l	wrist_flex_l	wrist_dev_l
     51.95000000	     -5.18320039	     -4.82306067	      2.38823387	      0.97336863	      0.91907634	      0.40796779	     11.78617421	     -5.14749480	     -8.92017955	     48.96480062	     48.96480062	      3.72105401	    -11.56167485	    -17.92765161	     21.84973993	     -3.20835795	      0.71849292	     31.01013158	     31.01013158	     16.56654574	    -15.30846488	      6.43113944	     -8.89950297	      4.31260219	      4.38447524	     30.20171890	    -14.55232111	    -11.89847318	     47.23019123	     45.33734878	      0.00000000	      0.00000000	      3.84582751	    -12.40600954	     21.24686484	     30.86478580	     44.62824660	      0.00000000	      0.00000000
     51.96942857	     -5.00119750	     -4.59987381	      2.00025171	      0.97240095	      0.91795031	      0.40509759	     14.02174375	     -5.67631718	     -8.29456686	     52.98038410	     52.98038410	      1.86531693	    -14.35348879	    -16.95318549	     21.47424307	     -2.81298877	      0.54744502	     31.51842634	     31.51842634	     17.08961715	    -15.82116562	      6.33576750	     -9.08639748	      4.36779837	      3.77206665	     27.14108399	    -13.90223031	    -11.73256020	     45.40237583	     45.38265265	      0.00000000	      0.00000000	      5.94763116	    -12.81440351	     21.07673320	     31.31874517	     44.68592872	      0.00000000	      0.00000000
     51.98885714	     -4.82360427	     -4.65565119	      1.57629557	      0.97132856	      0.91687017	      0.40252395	     16.34936640	     -5.54799020	     -7.33558046	     56.95766824	     56.95766824	      1.82443487	    -16.31639989	    -10.09596942	     21.17537390	     -2.70502603	      0.53528034	     32.16577769	     32.16577769	     18.05184043	    -16.25627662	      7.30306928	     -9.17939974	      4.75181432	      3.74336138	     24.70203045	    -13.63317289	    -12.06108250	     40.84644622	     45.58290370	      0.00000000	      0.00000000	      8.67771878	    -12.87607629	     21.35523458	     30.92408915	     44.72903862	      0.00000000	      0.00000000
     52.00828571	     -4.62715564	     -4.57720432	      1.16119099	      0.97028489	      0.91575338	      0.39999310	     18.50797318	     -5.63748442	     -6.63603963	     60.44287753	     60.44287753	      2.27476418	    -17.43433800	     -3.43278883	     20.80870488	     -2.47453170	      0.40081054	     32.73039806	     32.73039806	     18.81793490	    -16.65574746	      7.75882946	     -9.40703335	      4.99018343	      3.53747212	     21.88081344	    -13.26522636	    -12.51635418	     37.83689326	     45.72684378	      0.00000000	      0.00000000	     10.96647949	    -13.31637668	     21.15397681	     31.84704667	     44.82839781	      0.00000000	      0.00000000
     52.02771429	     -4.41625788	     -4.50790423	      0.73377515	      0.96924064	      0.91475507	      0.39770692	     20.46366352	     -5.69212727	     -6.07148446	     63.25767172	     63.25767172	      3.18433873	    -18.09118303	      2.86905324	     20.39110122	     -2.29180214	      0.18834075	     33.22251034	     33.22251034	     19.54935254	    -16.92330401	      8.07187608	     -9.66739121	      5.24166369	      3.41363033	     19.20458027	    -12.98771938	    -12.96495118	     34.59585255	     45.88419387	      0.00000000	      0.00000000	     13.35263558	    -13.69679295	     20.79020117	     32.61870437	     44.95301302	      0.00000000	      0.00000000
     52.04714286	     -4.19434718	     -4.43886180	      0.27699900	      0.96823125	      0.91402274	      0.39570210	     22.06964997	     -5.79257154	     -5.73668172	     65.07173032	     65.07173032	      3.40570763	    -18.73723500	      5.01427645	     19.85341405	     -2.13474977	     -0.08935609	     33.49757302	     33.49757302	     20.07937418	    -17.21901036	      8.08061765	     -9.98598654	      5.48606260	      3.62702454	     16.16647417	    -12.99910433	    -13.05208301	     32.21441785	     45.97230385	      0.00000000	      0.00000000	     15.77044684	    -14.00077111	     20.29712242	     33.81465361	     45.06508477	      0.00000000	      0.00000000
     52.06657143	     -4.06149230	     -4.39893607	     -0.20462873	      0.96707281	      0.91355945	      0.39420102	     23.77506309	     -5.62231188	     -5.24550143	     66.40999522	     66.40999522	      5.21130219	    -18.89064846	     10.80035411	     19.37097688	     -2.06762614	     -0.44832316	     33.66946327	     33.66946327	     20.67459420	    -17.26242417	      8.37239649	    -10.20640769	      5.76065049	      3.23422697	     14.01716514	    -12.64207918	    -13.47671090	     28.97205620	     46.14385058	      0.00000000	      0.00000000	     17.85100206	    -14.56820479	     19.37659804	     34.73729456	     45.23991623	      0.00000000	      0.00000000
     52.08600000	     -3.95536068	     -4.33430190	     -0.74244071	      0.96593858	      0.91345747	      0.39310360	     25.14743028	     -5.54412363	     -4.98938425	     66.63887964	     66.63887964	      5.87754944	    -19.04349412	     11.13746881	     18.77728148	     -2.00933719	     -0.88554890	     33.57253497	     33.57253497	     21.04281564	    -17.34498058	      8.32792681	    -10.42444973	      5.96664554	      3.27344102	     11.23351853	    -12.55323092	    -13.50153215	     27.23235640	     46.20256577	      0.00000000	      0.00000000	     20.07403515	    -15.01789570	     18.78682584	     36.00784795	     45.34996195	      0.00000000	      0.00000000
     52.10542857	     -3.88996746	     -4.39228431	     -1.31540564	      0.96471460	      0.91386141	      0.39255121	     26.37450414	     -5.16480456	     -4.74861690	     66.02787820	     66.02787820	      6.89595567	    -19.10908542	     11.66597147	     18.13188724	     -2.13577356	     -1.38199920	     33.27162703	     33.27162703	     21.30811609	    -17.30871133	      8.31334933	    -10.65785938	      6.30613661	      3.39142993	      8.64031057	    -12.51046580	    -13.52184163	     25.44308399	     46.26925627	      0.00000000	      0.00000000	     22.19158198	    -15.50427436	     17.97551958	     37.47518362	     45.48345039	      0.00000000	      0.00000000
     52.12485714	     -3.91026582	     -4.46746263	     -1.93901356	      0.96338931	      0.91464532	      0.39252993	     27.52418021	     -4.63739340	     -4.49020695	     64.61828305	     64.61828305	      7.90723110	    -19.05768432	     11.84152198	     17.46616533	     -2.33106370	     -1.96622491	     32.75207489	     32.75207489	     21.46525617	    -17.19375120	      8.27163371	    -10.81185719	      6.61102606	      3.39036654	      6.23793226	    -12.43720537	    -13.52620363	     23.87280923	     46.32935826	      0.00000000	      0.00000000	     24.15493721	    -16.08266144	     16.97900180	     39.06560869	     45.63256702	      0.00000000	      0.00000000
